# xmcd CD database file
#
# Track frame offsets:
#	150
#	16856
#	37829
#	61148
#	74936
#	106557
#	127801
#	147419
#	159968
#
# Disc length: 2292 seconds
#
# Revision: 0
# Processed by: cddbd v1.5.2PL0 Copyright (c) Steve Scherf et al.
# Submitted via: CDex 1.51
#
DISCID=6c08f209
DTITLE=Richard Doctors - Blink
DYEAR=2007
DGENRE=Blues
TTITLE0=Red Dress On
TTITLE1=Case Of The Blues
TTITLE2=Ride On
TTITLE3=Blink
TTITLE4=Albatross
TTITLE5=Jersey Devil
TTITLE6=Hilda From St.Kilda
TTITLE7=Take The Cake
TTITLE8=Moondog Jive
EXTD=YEAR: 2007
EXTT0=
EXTT1=
EXTT2=
EXTT3=
EXTT4=
EXTT5=
EXTT6=
EXTT7=
EXTT8=
PLAYORDER=
